{"title":"The D Train (2015) 720p BluRay x264 - MZABI","uid":12291068,"size":775200426,"categoryP":"video","categoryS":"movies","magnet":"?xt=urn:btih:6c95055c3f4a678882b79f815f20624f2a307822&amp;dn=The+D+Train+%282015%29+720p+BluRay+x264+-+MZABI&amp;tr=udp%3A%2F%2Ftracker.openbittorrent.com%3A80&amp;tr=udp%3A%2F%2Fopen.demonii.com%3A1337&amp;tr=udp%3A%2F%2Ftracker.coppersurfer.tk%3A6969&amp;tr=udp%3A%2F%2Fexodus.desync.com%3A6969","seeders":1,"leechers":2,"uploader":"MzabTM","files":1,"time":1440550888,"description":"[b]The D Train (2015) 720p BluRay x264 - MZABI[/b]\n\nGeneral\nComplete name                            The D Train (2015) 720p BluRay x264 - MZABI.mp4\nFormat                                   : MPEG-4\nFormat profile                           : Base Media\nCodec ID                                 : isom\nFile size                                : 739 MiB\nDuration                                 : 1h 41mn\nOverall bit rate mode                    : Variable\nOverall bit rate                         : 1 022 Kbps\nEncoded date                             : UTC 2015-08-25 21:51:19\nTagged date                              : UTC 2015-08-25 21:51:19\n\nVideo\nID                                       : 1\nFormat                                   : AVC\nFormat/Info                              : Advanced Video Codec\nFormat profile                           : &lt;a class=&quot;__cf_email__&quot; href=&quot;/cdn-cgi/l/email-protection&quot; data-cfemail=&quot;8cc4e5ebe4ccc0b8a2bd&quot;&gt;[email&amp;#160;protected]&lt;/a&gt;&lt;script data-cfhash='f9e31' type=&quot;text/javascript&quot;&gt;\n/* &lt;![CDATA[ */!function(){try{var t=&quot;currentScript&quot;in document?document.currentScript:function(){for(var t=document.getElementsByTagName(&quot;script&quot;),e=t.length;e--;)if(t[e].getAttribute(&quot;data-cfhash&quot;))return t[e]}();if(t&amp;&amp;t.previousSibling){var e,r,n,i,c=t.previousSibling,a=c.getAttribute(&quot;data-cfemail&quot;);if(a){for(e=&quot;&quot;,r=parseInt(a.substr(0,2),16),n=2;a.length-n;n+=2)i=parseInt(a.substr(n,2),16)^r,e+=String.fromCharCode(i);e=document.createTextNode(e),c.parentNode.replaceChild(e,c)}t.parentNode.removeChild(t);}}catch(u){}}()/* ]]&gt; */&lt;/script&gt;\nFormat settings, CABAC                   : Yes\nFormat settings, ReFrames                : 4 frames\nCodec ID                                 : avc1\nCodec ID/Info                            : Advanced Video Coding\nDuration                                 : 1h 41mn\nBit rate                                 : 900 Kbps\nMaximum bit rate                         : 5 231 Kbps\nWidth                                    : 1 280 pixels\nHeight                                   : 534 pixels\nDisplay aspect ratio                     : 2.40:1\nFrame rate mode                          : Constant\nFrame rate                               : 23.976 fps\nColor space                              : YUV\nChroma subsampling                       : 4:2:0\nBit depth                                : 8 bits\nScan type                                : Progressive\nBits/(Pixel*Frame)                       : 0.055\nStream size                              : 651 MiB (88%)\nWriting library                          : Zencoder Video Encoding System\nEncoded date                             : UTC 2015-08-25 21:20:13\nTagged date                              : UTC 2015-08-25 21:51:21\n\nAudio\nID                                       : 2\nFormat                                   : AAC\nFormat/Info                              : Advanced Audio Codec\nFormat profile                           : LC\nCodec ID                                 : 40\nDuration                                 : 1h 41mn\nBit rate mode                            : Variable\nBit rate                                 : 119 Kbps\nMaximum bit rate                         : 172 Kbps\nChannel(s)                               : 2 channels\nChannel positions                        : Front: L R\nSampling rate                            : 48.0 KHz\nCompression mode                         : Lossy\nStream size                              : 86.1 MiB (12%)\nEncoded date                             : UTC 2015-08-25 21:04:48\nTagged date                              : UTC 2015-08-25 21:51:21\n\n\n &lt;a href=&quot;\nhttp://i.imgur.com/r6mNCwN.png&quot; rel=&quot;nofollow&quot; target=&quot;_NEW&quot;&gt;\nhttp://i.imgur.com/r6mNCwN.png&lt;/a&gt;\n &lt;a href=&quot;\nhttp://i.imgur.com/Jb3itIm.png&quot; rel=&quot;nofollow&quot; target=&quot;_NEW&quot;&gt;\nhttp://i.imgur.com/Jb3itIm.png&lt;/a&gt;\n &lt;a href=&quot;\nhttp://i.imgur.com/RGtwUf7.png&quot; rel=&quot;nofollow&quot; target=&quot;_NEW&quot;&gt;\nhttp://i.imgur.com/RGtwUf7.png&lt;/a&gt;","torrent":{"xt":"urn:btih:6c95055c3f4a678882b79f815f20624f2a307822","amp;dn":"The+D+Train+%282015%29+720p+BluRay+x264+-+MZABI","amp;tr":["udp%3A%2F%2Ftracker.openbittorrent.com%3A80","udp%3A%2F%2Fopen.demonii.com%3A1337","udp%3A%2F%2Ftracker.coppersurfer.tk%3A6969","udp%3A%2F%2Fexodus.desync.com%3A6969"],"infoHash":"6c95055c3f4a678882b79f815f20624f2a307822","infoHashBuffer":{"type":"Buffer","data":[108,149,5,92,63,74,103,136,130,183,159,129,95,32,98,79,42,48,120,34]},"announce":[],"urlList":[]}}